<svg id="flat" height="30" viewBox="0 0 32 32" width="40" xmlns="http://www.w3.org/2000/svg"><path d="m150.777 58.306 17.223 29.694 96-24-8-32z" fill="#b7b2a5"/><path d="m168 88 12.261-3.065a24.012 24.012 0 0 0 -20.851-28.788l-8.633 2.159z" fill="#999488"/><path d="m360 39.015h16v65.97h-16z" fill="#3f484f" transform="matrix(.243 -.97 .97 .243 208.897 411.55)"/><path d="m422.06 127.761-32-8a8 8 0 0 1 -5.821-9.7l16-64a8 8 0 0 1 9.7-5.821l32 8-3.88 15.522-24.238-6.062-12.121 48.479 24.239 6.06z" fill="#26bfb0"/><path d="m307.508 10.523h32.985v98.955h-32.985z" fill="#b7b2a5" transform="matrix(.243 -.97 .97 .243 187.21 359.774)"/><path d="m272 64 29.7 7.424a31.98 31.98 0 0 0 -8.9-36.224l-12.8-3.2z" fill="#999488"/><path d="m317.823 325.909a111.923 111.923 0 0 1 -87.914 87.914c-6.131-26.517-1.544-50.992 17.689-70.225s43.708-23.82 70.225-17.689zm-149.423 17.691c19.233 19.233 23.82 43.708 17.689 70.225a111.923 111.923 0 0 1 -87.914-87.914c26.518-6.133 50.994-1.546 70.225 17.689zm118.8-118.8a111.449 111.449 0 0 1 30.627 57.287c-26.517 6.131-50.992 1.544-70.225-17.689s-23.82-43.708-17.689-70.225a111.449 111.449 0 0 1 57.287 30.627zm-118.8 39.6c-19.233 19.233-43.709 23.82-70.225 17.689a111.923 111.923 0 0 1 87.914-87.914c6.133 26.519 1.546 50.994-17.689 70.225zm181.019-79.2-22.627-22.627-22.6 13.559a158.853 158.853 0 0 0 -33.56-19.4l.442-26.324-30.909-8.282-12.793 23.044a160.906 160.906 0 0 0 -38.75 0l-12.793-23.044-30.91 8.282.443 26.324a158.853 158.853 0 0 0 -33.56 19.4l-22.6-13.559-22.623 22.633 13.559 22.6a158.853 158.853 0 0 0 -19.4 33.56l-26.324-.443-8.282 30.91 23.044 12.793a160.906 160.906 0 0 0 0 38.75l-23.047 12.792 8.282 30.909 26.324-.442a158.853 158.853 0 0 0 19.4 33.56l-13.559 22.6 22.627 22.627 22.6-13.559a158.9 158.9 0 0 0 33.56 19.4l-.443 26.323 30.91 8.282 12.793-23.044a160.906 160.906 0 0 0 38.75 0l12.793 23.044 30.91-8.282-.443-26.324a158.853 158.853 0 0 0 33.56-19.4l22.6 13.559 22.627-22.627-13.559-22.6a158.853 158.853 0 0 0 19.4-33.56l26.324.443 8.282-30.91-23.044-12.793a160.906 160.906 0 0 0 0-38.75l23.044-12.793-8.282-30.91-26.323.443a158.9 158.9 0 0 0 -19.4-33.56z" fill="#ffa511"/><path d="m192.161 144.8c-1.179.117-2.359.232-3.536.375l-12.793-23.045-21.873 5.861 17.534 70.137a112.238 112.238 0 0 1 14.6-3.949c4.093 17.7 3.4 34.492-3.229 49.422l16.644 66.578 32-8z" fill="#f08015"/><path d="m163.508 80.553h32.985v230.894h-32.985z" fill="#b7b2a5" transform="matrix(.97 -.243 .243 .97 -42.163 49.508)"/><path d="m152 112a55.729 55.729 0 0 1 25.542 6.17l-9.542-38.17-32 8 6.217 24.869a56.321 56.321 0 0 1 9.783-.869z" fill="#999488"/><path d="m471.722 410.428a55.967 55.967 0 0 0 -2.847-12.732l14.926-10.73-18.678-25.983-14.932 10.733a55.867 55.867 0 0 0 -23.609-10.692l-1.826-18.259-31.841 3.184 1.826 18.259a55.857 55.857 0 0 0 -21.024 15.156l-16.762-7.564-13.163 29.168 16.755 7.562a54.352 54.352 0 0 0 2.578 25.775l-14.925 10.729 18.678 25.983 14.932-10.734a55.869 55.869 0 0 0 23.609 10.693l1.826 18.259 31.841-3.184-1.826-18.259a55.857 55.857 0 0 0 21.024-15.156l16.762 7.565 13.163-29.168-16.755-7.562a56.025 56.025 0 0 0 .268-13.043zm-53.334 29.453a24 24 0 1 1 21.493-26.269 24 24 0 0 1 -21.493 26.269z" fill="#ffdc13"/><path d="m366.827 284.625 23.045-12.793-8.283-30.91-26.323.443a158.886 158.886 0 0 0 -17.535-31 303.027 303.027 0 0 1 -26.344 50.584 111.92 111.92 0 0 1 6.436 21.144 92.324 92.324 0 0 1 -23.4 2.5 305.127 305.127 0 0 1 -109.01 86.538c4.175 13.176 4.162 27.6.674 42.689a111.389 111.389 0 0 1 -50.487-24.372 303.086 303.086 0 0 1 -56.252 9.668c.265.358.519.723.788 1.079l-13.559 22.6 22.627 22.627 22.6-13.559a158.9 158.9 0 0 0 33.56 19.4l-.443 26.323 30.91 8.282 12.793-23.044a160.906 160.906 0 0 0 38.75 0l12.793 23.044 30.91-8.282-.443-26.324a158.853 158.853 0 0 0 33.56-19.4l22.6 13.559 22.627-22.627-13.559-22.6a158.853 158.853 0 0 0 19.4-33.56l26.324.443 8.283-30.91-23.045-12.793a160.906 160.906 0 0 0 .003-38.749zm-79.627 98.575a111.449 111.449 0 0 1 -57.287 30.627c-6.131-26.517-1.544-50.992 17.689-70.225s43.708-23.82 70.225-17.689a111.449 111.449 0 0 1 -30.627 57.287z" fill="#f08015"/><path d="m471.453 423.471a54.352 54.352 0 0 0 -2.578-25.775l14.927-10.73-14.567-20.266a144.148 144.148 0 0 1 -29.585 45.251c.093.547.175 1.1.231 1.659a24 24 0 0 1 -33.837 24.223 143.051 143.051 0 0 1 -50.877 16.893l11.71 16.289 14.932-10.734a55.869 55.869 0 0 0 23.609 10.693l1.826 18.259 31.841-3.184-1.826-18.259a55.857 55.857 0 0 0 21.024-15.156l16.762 7.565 13.163-29.168z" fill="#e5af17"/><circle cx="272" cy="48" fill="#666" r="24"/><path d="m284.494 27.506a24 24 0 0 1 -32.988 32.988 24 24 0 1 0 32.988-32.988z" fill="#565655"/><circle cx="152" cy="80" fill="#666" r="24"/><path d="m164.494 59.506a24 24 0 0 1 -32.988 32.988 24 24 0 1 0 32.988-32.988z" fill="#565655"/><circle cx="208" cy="304" fill="#3f484f" r="24"/><path d="m220.494 283.506a24 24 0 0 1 -32.988 32.988 24 24 0 1 0 32.988-32.988z" fill="#2a3135"/></svg>