<?xml version="1.0" encoding="iso-8859-1"?>
<!-- Generator: Adobe Illustrator 19.0.0, SVG Export Plug-In . SVG Version: 6.00 Build 0)  -->
<svg version="1.1" id="Layer_1" xmlns="http://www.w3.org/2000/svg" xmlns:xlink="http://www.w3.org/1999/xlink" x="0px" y="0px"
	 viewBox="0 0 6700 6700" style="enable-background:new 0 0 512 512;" xml:space="preserve">
<path style="fill:#797781;" d="M418.909,180.364v221.09c0,44.986-72.937,81.454-162.909,81.454S93.092,446.44,93.092,401.454
	v-221.09H418.909z"/>
<path style="fill:#58575D;" d="M256.001,180.364v302.545c89.972,0,162.909-36.468,162.909-81.454v-221.09H256.001z"/>
<g>
	<path style="fill:#88888F;" d="M482.909,246.477v-95.204H448v95.203c-3.61,4.101-5.818,9.463-5.818,15.343
		c0,12.833,10.44,23.273,23.273,23.273c12.833,0,23.273-10.44,23.273-23.273C488.727,255.939,486.518,250.577,482.909,246.477z"/>
	<polygon style="fill:#88888F;" points="256.001,261.818 25.612,145.455 256.001,29.091 486.387,145.455 	"/>
	<polygon style="fill:#88888F;" points="256.001,261.818 0,145.455 256.001,29.091 512,145.455 	"/>
</g>
<polygon style="fill:#797781;" points="256.001,29.091 256.001,261.818 512,145.455 "/>
<g>
</g>
<g>
</g>
<g>
</g>
<g>
</g>
<g>
</g>
<g>
</g>
<g>
</g>
<g>
</g>
<g>
</g>
<g>
</g>
<g>
</g>
<g>
</g>
<g>
</g>
<g>
</g>
<g>
</g>
</svg>
