<?xml version="1.0" encoding="iso-8859-1"?>
<!-- Generator: Adobe Illustrator 19.0.0, SVG Export Plug-In . SVG Version: 6.00 Build 0)  -->
<svg version="1.1" id="Capa_1" xmlns="http://www.w3.org/2000/svg" xmlns:xlink="http://www.w3.org/1999/xlink" x="0px" y="0px"
	 viewBox="0 0 480 480" style="enable-background:new 0 0 480 480;" xml:space="preserve">
<path style="fill:#EF9F35;" d="M224,471.483h32l16-32h-64L224,471.483z"/>
<g>
	<path style="fill:#1895AA;" d="M192,375.483c-8.837,0-16,7.163-16,16s7.163,16,16,16h96c8.837,0,16-7.163,16-16s-7.163-16-16-16
		H192z"/>
	<path style="fill:#1895AA;" d="M176,423.483c0,8.837,7.163,16,16,16h96c8.837,0,16-7.163,16-16s-7.163-16-16-16h-96
		C183.163,407.483,176,414.647,176,423.483z"/>
</g>
<g>
	<path style="fill:#F9F6ED;" d="M320,151.483h152v16c0,13.255-10.745,24-24,24v16c0,13.255-10.745,24-24,24
		c0,22.091-17.909,40-40,40h-64V151.483z"/>
	<path style="fill:#F9F6ED;" d="M160,151.483H8v16c0,13.255,10.745,24,24,24v16c0,13.255,10.745,24,24,24c0,22.091,17.909,40,40,40
		h64V151.483z"/>
</g>
<path style="fill:#F7D04F;" d="M223.52,8.363C144.519,17.511,87.892,88.97,97.04,167.972c3.936,33.989,19.846,65.467,44.88,88.792
	c31.434,28.285,49.595,68.436,50.08,110.72v8h48v-136c-3.503-0.012-7.002-0.225-10.48-0.64l-4.64-25.2
	c-6.374-1.572-12.471-4.108-18.08-7.52l-21.12,14.48c-5.515-4.315-10.485-9.285-14.8-14.8l14.48-21.12
	c-3.413-5.609-5.948-11.706-7.52-18.08l-25.2-4.64c-0.853-6.961-0.853-13.999,0-20.96l25.2-4.64
	c1.572-6.374,4.108-12.471,7.52-18.08l-14.48-21.12c4.315-5.515,9.285-10.485,14.8-14.8l21.12,14.48
	c5.609-3.412,11.706-5.948,18.08-7.52l4.64-25.2c6.961-0.853,13.999-0.853,20.96,0l4.64,25.2c6.374,1.572,12.471,4.108,18.08,7.52
	l21.12-14.48c5.515,4.315,10.485,9.285,14.8,14.8l-14.48,21.12c3.412,5.609,5.948,11.706,7.52,18.08l25.2,4.64
	c0.853,6.961,0.853,13.999,0,20.96l-25.2,4.64c-1.572,6.374-4.108,12.471-7.52,18.08l14.48,21.12
	c-4.315,5.515-9.285,10.485-14.8,14.8l-21.12-14.48c-5.609,3.412-11.706,5.948-18.08,7.52l-4.64,25.2
	c-3.478,0.415-6.977,0.628-10.48,0.64v136h48v-8c-0.108-41.469,17.328-81.05,48-108.96c59.135-53.178,63.964-144.226,10.786-203.361
	C315.672,20.563,269.756,3.131,223.52,8.363L223.52,8.363z"/>
<path style="fill:#63C8CD;" d="M255.12,213.643c6.374-1.572,12.471-4.108,18.08-7.52l21.12,14.48
	c5.515-4.315,10.485-9.285,14.8-14.8l-14.48-21.12c3.412-5.609,5.948-11.706,7.52-18.08l25.2-4.64c0.853-6.961,0.853-13.999,0-20.96
	l-25.2-4.64c-1.572-6.374-4.108-12.471-7.52-18.08l14.48-21.12c-4.315-5.515-9.285-10.485-14.8-14.8l-21.12,14.48
	c-5.609-3.412-11.706-5.948-18.08-7.52l-4.64-25.2c-6.961-0.853-13.999-0.853-20.96,0l-4.64,25.2
	c-6.374,1.572-12.471,4.108-18.08,7.52l-21.12-14.48c-5.515,4.315-10.485,9.285-14.8,14.8l14.48,21.12
	c-3.412,5.609-5.948,11.706-7.52,18.08l-25.2,4.64c-0.853,6.961-0.853,13.999,0,20.96l25.2,4.64
	c1.572,6.374,4.108,12.471,7.52,18.08l-14.48,21.12c4.315,5.515,9.285,10.485,14.8,14.8l21.12-14.48
	c5.609,3.412,11.706,5.948,18.08,7.52l4.64,25.2c6.961,0.853,13.999,0.853,20.96,0L255.12,213.643z M208,151.483
	c0-17.673,14.327-32,32-32c17.673,0,32,14.327,32,32s-14.327,32-32,32C222.327,183.483,208,169.157,208,151.483z"/>
<circle style="fill:#F7D04F;" cx="240" cy="151.483" r="32"/>
<g>
	<path style="fill:#3C3C48;" d="M240,191.483c22.091,0,40-17.909,40-40s-17.909-40-40-40c-22.091,0-40,17.909-40,40
		S217.909,191.483,240,191.483z M240,127.483c13.255,0,24,10.745,24,24s-10.745,24-24,24s-24-10.745-24-24
		S226.745,127.483,240,127.483z"/>
	<path style="fill:#3C3C48;" d="M472,143.483h-80C387.009,59.685,315.03-4.201,231.231,0.79
		C156.47,5.243,96.094,63.49,88.96,138.043v5.44H8c-4.418,0-8,3.582-8,8c0.018,17.131,9.164,32.954,24,41.52
		c0.548,16.586,9.623,31.712,24,40c0.821,25.914,22.073,46.493,48,46.48h56c20.486,24.771,31.789,55.856,32,88v1.6
		c-9.511,3.362-15.904,12.313-16,22.4c0.035,5.92,2.258,11.619,6.24,16c-3.982,4.381-6.205,10.08-6.24,16c0,13.255,10.745,24,24,24
		l0,0h11.04l13.84,27.6c1.356,2.69,4.108,4.391,7.12,4.4h32c3.012-0.009,5.764-1.71,7.12-4.4l13.84-27.6H288
		c13.255,0,24-10.745,24-24l0,0c-0.035-5.92-2.258-11.619-6.24-16c3.982-4.381,6.205-10.08,6.24-16
		c-0.029-10.146-6.434-19.178-16-22.56v-1.44c-0.017-32.101,11.126-63.21,31.52-88H384c25.927,0.013,47.179-20.566,48-46.48
		c14.377-8.288,23.452-23.414,24-40c14.836-8.566,23.982-24.389,24-41.52C480,147.065,476.418,143.483,472,143.483z M96,263.483
		c-14.583-0.011-27.314-9.88-30.96-24H88v-16H72c-14.583-0.011-27.314-9.88-30.96-24H64v-16H48c-14.583-0.011-27.314-9.88-30.96-24
		H88c1.96,39.313,19.181,76.31,48,103.12l0.88,0.88H96z M192,383.483h96c4.418,0,8,3.582,8,8s-3.582,8-8,8h-96c-4.418,0-8-3.582-8-8
		S187.582,383.483,192,383.483z M251.04,463.483h-22.08l-8-16h38.08L251.04,463.483z M288,431.483h-96c-4.418,0-8-3.582-8-8
		s3.582-8,8-8h96c4.418,0,8,3.582,8,8S292.418,431.483,288,431.483z M280,367.483h-32v-120h3.36c3.491-0.397,6.315-3.026,6.96-6.48
		l3.76-20.32c3.723-1.407,7.311-3.147,10.72-5.2l16.96,11.76c2.828,2.094,6.692,2.094,9.52,0c5.942-4.687,11.313-10.058,16-16
		c2.094-2.828,2.094-6.692,0-9.52L304,184.283c1.806-3.435,3.305-7.022,4.48-10.72l20.32-3.76c3.454-0.645,6.083-3.469,6.48-6.96
		c0.96-7.543,0.96-15.177,0-22.72c-0.397-3.491-3.026-6.315-6.48-6.96l-20.32-3.76c-1.175-3.698-2.674-7.285-4.48-10.72l11.76-16.96
		c2.094-2.828,2.094-6.692,0-9.52c-4.687-5.942-10.058-11.313-16-16c-2.828-2.094-6.692-2.094-9.52,0l-17.44,11.28
		c-3.435-1.806-7.022-3.305-10.72-4.48l-3.76-20.32c-0.645-3.454-3.469-6.083-6.96-6.48c-7.543-0.96-15.177-0.96-22.72,0
		c-3.491,0.397-6.315,3.026-6.96,6.48l-3.76,20.32c-3.698,1.175-7.285,2.674-10.72,4.48l-16.96-11.76
		c-2.828-2.094-6.692-2.094-9.52,0c-5.942,4.687-11.313,10.058-16,16c-2.094,2.828-2.094,6.692,0,9.52l11.28,17.44
		c-1.806,3.435-3.305,7.022-4.48,10.72l-20.32,3.76c-3.454,0.645-6.083,3.469-6.48,6.96c-0.96,7.543-0.96,15.177,0,22.72
		c0.397,3.491,3.026,6.315,6.48,6.96l20.32,3.76c1.175,3.698,2.674,7.285,4.48,10.72l-11.76,16.96c-2.094,2.828-2.094,6.692,0,9.52
		c4.687,5.942,10.058,11.313,16,16c2.828,2.094,6.692,2.094,9.52,0l17.44-11.28c3.435,1.806,7.022,3.305,10.72,4.48l3.76,20.32
		c0.645,3.454,3.469,6.083,6.96,6.48l3.36,0.72v120h-32c-0.429-44.469-19.531-86.71-52.64-116.4
		c-54.938-51.219-57.954-137.277-6.735-192.215s137.277-57.954,192.215-6.735s57.954,137.277,6.735,192.215
		c-2.623,2.813-5.364,5.514-8.215,8.095C298.754,281.811,280.096,323.602,280,367.483z M192,180.523
		c-3.057-4.943-5.299-10.345-6.64-16c-0.737-3.073-3.213-5.424-6.32-6l-19.04-3.36c0-1.28,0-2.48,0-3.68s0-2.4,0-3.68l19.2-3.52
		c3.107-0.576,5.583-2.927,6.32-6c1.341-5.655,3.583-11.057,6.64-16c1.723-2.651,1.723-6.069,0-8.72l-11.04-16
		c1.611-1.851,3.349-3.589,5.2-5.2l16,11.04c2.651,1.723,6.069,1.723,8.72,0c4.957-3.03,10.355-5.27,16-6.64
		c3.073-0.737,5.424-3.213,6-6.32l3.52-19.2h7.36l3.52,19.2c0.576,3.107,2.927,5.583,6,6.32c5.645,1.37,11.043,3.61,16,6.64
		c2.651,1.723,6.069,1.723,8.72,0l16-11.04c1.858,1.631,3.621,3.367,5.28,5.2l-11.12,16c-1.723,2.651-1.723,6.069,0,8.72
		c3.057,4.943,5.299,10.345,6.64,16c0.737,3.073,3.213,5.424,6.32,6l19.2,3.52v3.68c0,0,0,2.4,0,3.68l-19.2,3.52
		c-3.107,0.576-5.583,2.927-6.32,6c-1.341,5.655-3.583,11.057-6.64,16c-1.723,2.651-1.723,6.069,0,8.72l11.04,16
		c-1.611,1.851-3.349,3.589-5.2,5.2l-16-11.04c-2.651-1.723-6.069-1.723-8.72,0c-4.943,3.057-10.345,5.299-16,6.64
		c-3.073,0.737-5.424,3.213-6,6.32l-3.76,18.96c-2.56,0-4.8,0-7.36,0l-3.52-19.2c-0.576-3.107-2.927-5.583-6-6.32
		c-5.645-1.37-11.043-3.61-16-6.64c-2.651-1.723-6.069-1.723-8.72,0l-16,11.04c-1.858-1.631-3.621-3.367-5.28-5.2l11.12-16
		C193.633,186.547,193.665,183.171,192,180.523L192,180.523z M432,183.483h-16v16h22.96c-3.646,14.12-16.377,23.989-30.96,24h-16v16
		h22.96c-3.646,14.12-16.377,23.989-30.96,24h-41.52c29.512-26.827,47.297-64.179,49.52-104h71.36
		C459.678,173.749,446.732,183.656,432,183.483z"/>
</g>
<g>
	<path style="fill:#F9F6ED;" d="M299.76,57.883c-7.054-4.42-14.564-8.068-22.4-10.88l5.28-15.04c8.988,3.121,17.579,7.283,25.6,12.4
		L299.76,57.883z"/>
	<path style="fill:#F9F6ED;" d="M348,122.763c-5.604-20.049-16.686-38.139-32-52.24l10.88-11.68
		c17.469,16.103,30.078,36.778,36.4,59.68L348,122.763z"/>
</g>
<g>
</g>
<g>
</g>
<g>
</g>
<g>
</g>
<g>
</g>
<g>
</g>
<g>
</g>
<g>
</g>
<g>
</g>
<g>
</g>
<g>
</g>
<g>
</g>
<g>
</g>
<g>
</g>
<g>
</g>
</svg>
