<?xml version="1.0" encoding="iso-8859-1"?>
<!-- Generator: Adobe Illustrator 19.0.0, SVG Export Plug-In . SVG Version: 6.00 Build 0)  -->
<svg version="1.1" id="Capa_1" xmlns="http://www.w3.org/2000/svg" xmlns:xlink="http://www.w3.org/1999/xlink" x="0px" y="0px"
	 viewBox="0 0 480.019 480.019" style="enable-background:new 0 0 480.019 480.019;" xml:space="preserve">
<g>
	<path style="fill:#EF9F35;" d="M272.007,424.015v-40h-32v24v-24h-72l24,88h96l24-88h-40V424.015z"/>
	<path style="fill:#EF9F35;" d="M152.007,384.015h16h72h32h40h16v-40h-88h-88V384.015z"/>
</g>
<path style="fill:#F7D04F;" d="M240.007,104.015l-32-32L240.007,104.015l32-32L240.007,104.015v104h32
	c0.137-24.357,9.582-47.74,26.4-65.36c30.167-32.281,28.452-82.906-3.829-113.072S211.672,1.13,181.506,33.411
	c-29.229,31.278-28.655,80.022,1.301,110.603c16.424,17.231,25.467,40.197,25.2,64h32L240.007,104.015z"/>
<path style="fill:#1895AA;" d="M288.007,224.015c0-8.837-7.163-16-16-16h-64c-8.837,0-16,7.163-16,16s7.163,16,16,16h64
	C280.843,240.015,288.007,232.851,288.007,224.015z"/>
<g>
	<path style="fill:#63C8CD;" d="M138.487,173.535c-26.32-26.24-74.08-21.12-74.08-21.12s-5.12,48,21.12,74.08
		s74.48,21.52,74.48,21.52l-56-56l56,56C160.007,248.015,164.727,200.015,138.487,173.535L138.487,173.535z"/>
	<path style="fill:#63C8CD;" d="M394.487,258.495c26.24-26.48,21.52-74.08,21.52-74.08s-48-5.12-74.08,21.12
		s-21.52,74.48-21.52,74.48l56-56l-56,56C320.407,280.015,368.007,284.735,394.487,258.495L394.487,258.495z"/>
</g>
<path style="fill:#3C3C48;" d="M144.007,168.015c-28.64-28.64-78.4-24-80.56-23.44c-3.699,0.423-6.617,3.341-7.04,7.04
	c-0.4,2.08-5.2,51.84,23.6,80.4c20.88,20.96,53.12,24,69.76,24h6.88l29.76,29.84c1.516,1.419,3.524,2.194,5.6,2.16h40v48h-80
	c-4.418,0-8,3.582-8,8v40c0,4.418,3.582,8,8,8h9.92l22.08,82.08c0.965,3.594,4.281,6.047,8,5.92h96c3.719,0.127,7.035-2.326,8-5.92
	l22.08-82.08h9.92c4.418,0,8-3.582,8-8v-40c0-4.418-3.582-8-8-8h-80v-16h40c2.126,0.012,4.17-0.823,5.68-2.32l29.76-29.68h6.88
	c16.64,0,48.88-2.96,69.76-24c28.72-28.64,24-78.4,23.44-80.56c-0.423-3.699-3.341-6.617-7.04-7.04c-2.16-0.4-51.92-5.12-80.48,23.6
	c-24.48,24.4-24.4,64-24,76.56l-27.28,27.44h-36.72v-56h24c13.251-0.33,23.725-11.339,23.396-24.59
	c-0.242-9.717-6.321-18.329-15.396-21.81c1.662-20.032,10.132-38.89,24-53.44c33.233-35.463,31.426-91.152-4.037-124.385
	s-91.152-31.426-124.385,4.037c-32.216,34.377-31.642,88.029,1.302,121.709c13.733,14.005,21.943,32.501,23.12,52.08
	c-12.375,4.748-18.558,18.629-13.81,31.004c3.482,9.075,12.093,15.154,21.81,15.396h24v24h-36.72l-27.28-27.52
	C168.487,232.015,168.567,192.015,144.007,168.015z M281.927,464.015h-83.84l-19.6-72h53.52v16h16v-16h16v32h16v-32h21.52
	L281.927,464.015z M320.007,376.015h-160v-24h160V376.015z M347.207,211.215c17.76-17.68,47.44-19.2,60.8-19.2
	c0,13.28-1.44,43.04-19.2,60.8c-13.647,11.857-30.97,18.64-49.04,19.2l41.92-41.92l-11.36-11.36l-41.92,42
	C328.699,242.539,335.35,225.019,347.207,211.215z M168.727,77.775c4.68-32.452,30.694-57.645,63.28-61.28
	c20.364-2.384,40.768,4.116,56,17.84c29.64,26.508,32.18,72.025,5.672,101.665c-0.366,0.409-0.736,0.814-1.112,1.215
	c-16.388,17.074-26.463,39.227-28.56,62.8h-16v-92.72l29.68-29.6l-11.36-11.36l-26.32,26.4l-26.32-26.4l-11.36,11.36l29.68,29.6
	v92.72h-16c-1.397-23.136-11.015-45.011-27.12-61.68C173.098,122.392,165.643,100,168.727,77.775L168.727,77.775z M200.007,224.015
	c0-4.418,3.582-8,8-8h64c4.418,0,8,3.582,8,8s-3.582,8-8,8h-64C203.589,232.015,200.007,228.433,200.007,224.015L200.007,224.015z
	 M91.207,220.815c-17.68-17.76-19.2-47.52-19.2-60.8c13.2,0,43.04,1.44,60.8,19.2c11.903,13.651,18.691,31.015,19.2,49.12l-41.92-42
	l-11.36,11.36l41.6,42.32C125.447,238.495,104.807,234.415,91.207,220.815z"/>
<g>
</g>
<g>
</g>
<g>
</g>
<g>
</g>
<g>
</g>
<g>
</g>
<g>
</g>
<g>
</g>
<g>
</g>
<g>
</g>
<g>
</g>
<g>
</g>
<g>
</g>
<g>
</g>
<g>
</g>
</svg>
