<svg id="Layer_1" enable-background="new 0 0 512.021 512.021" height="512" viewBox="0 0 512.021 512.021" width="512" xmlns="http://www.w3.org/2000/svg"><g><g><path d="m271.01 219.197h-30v-74.694c0-32.074 26.094-58.168 58.168-58.168h64.761c15.532 0 28.168-12.636 28.168-28.167s-12.636-28.168-28.168-28.168h-237.498v-30h237.498c32.074 0 58.168 26.094 58.168 58.167s-26.094 58.168-58.168 58.168h-64.761c-15.532 0-28.168 12.636-28.168 28.168z" fill="#f9f9f9"/></g><path d="m363.939 0h-108.264v30h108.264c15.532 0 28.168 12.636 28.168 28.168s-12.636 28.167-28.168 28.167h-64.761c-17.293 0-32.839 7.594-43.503 19.613v113.249h15.335v-74.694c0-15.532 12.636-28.168 28.168-28.168h64.761c32.074 0 58.168-26.094 58.168-58.168s-26.094-58.167-58.168-58.167z" fill="#eceae7"/><path d="m338.075 377.879 7.321 134.142h111.365l8.097-148.38z" fill="#525cdd"/><path d="m338.075 377.879 7.321 134.142h111.365l8.097-148.38z" fill="#454040"/><path d="m47.163 363.641 8.096 148.38h111.366l7.321-134.142z" fill="#665e66"/><path d="m390.806 170.507c-31.187 0-61.369 12.204-83.823 33.69h-101.945c-22.453-21.486-52.635-33.69-83.823-33.69-66.808 0-121.159 54.352-121.159 121.16s54.352 121.159 121.159 121.159c31.188 0 61.37-12.204 83.823-33.69h101.945c22.454 21.486 52.637 33.69 83.823 33.69 66.808 0 121.159-54.352 121.159-121.159s-54.351-121.16-121.159-121.16z" fill="#454040"/><path d="m390.806 170.507c-31.187 0-61.369 12.204-83.823 33.69h-51.308v174.939h51.308c22.454 21.486 52.637 33.69 83.823 33.69 66.808 0 121.159-54.352 121.159-121.159s-54.351-121.16-121.159-121.16z" fill="#2e2e2e"/><g><path d="m211.007 276.667h30.002v30h-30.002z" fill="#ffd321"/></g><g><path d="m271.011 276.667h30.002v30h-30.002z" fill="#ff9d21"/></g><path d="m167.083 276.667h-35.432v-35.432h-30v35.432h-35.431v30h35.431v35.431h30v-35.431h35.432z" fill="#dad0cb"/></g><g><path d="m395.37 345.098c-10.162 0-18.43-8.267-18.43-18.429s8.268-18.429 18.43-18.429c10.161 0 18.429 8.267 18.429 18.429s-8.268 18.429-18.429 18.429z" fill="#00da80"/></g><g><path d="m395.37 275.094c-10.162 0-18.43-8.267-18.43-18.429s8.268-18.429 18.43-18.429c10.161 0 18.429 8.267 18.429 18.429s-8.268 18.429-18.429 18.429z" fill="#525cdd"/></g><g><path d="m430.372 310.096c-10.161 0-18.429-8.267-18.429-18.429s8.268-18.429 18.429-18.429 18.429 8.267 18.429 18.429c-.001 10.162-8.268 18.429-18.429 18.429z" fill="#ff9d21"/></g><g><path d="m360.367 310.096c-10.162 0-18.429-8.267-18.429-18.429s8.267-18.429 18.429-18.429 18.43 8.267 18.43 18.429c-.001 10.162-8.268 18.429-18.43 18.429z" fill="#c1126b"/></g></svg>